#!OML:ASF E:\inclinewalkrobotboard\Project 1\Capture day 1\Session 1\subject1.ASF
:FULLY-SPECIFIED
:DEGREES
359
root 7.73777 25.1614 -11.5639 -171.75 4.4496 179.171
lowerback -4.71604 0.0903184 -7.48569
upperback 3.28423 0.664472 1.13228
thorax 6.01519 0.00986621 5.471
lowerneck -1.94454 -1.43996 -10.3881
upperneck 26.2505 -1.75695 16.6989
head 8.59092 0.80942 7.71249
rclavicle -2.22701e-015 -6.64686e-016
rhumerus -63.26 -47.7076 -38.3528
rradius 15.692
rwrist 37.3657
rhand -15.3583 -37.0569
rfingers 7.12502
rthumb 10.8192 -66.7582
lclavicle -2.22701e-015 -6.64686e-016
lhumerus -27.1148 2.49268 86.9299
lradius 27.9955
lwrist -18.9051
lhand -26.2063 -22.4211
lfingers 7.12502
lthumb 0.346447 7.5584
rfemur -12.6053 8.73614 16.0724
rtibia 16.3996
rfoot -22.7169 -3.97843
rtoes -24.3825
lfemur -8.07601 -7.80237 -22.987
ltibia 10.5564
lfoot -25.0725 1.69013
ltoes -60.1449
360
root 7.74801 25.1669 -11.6115 -171.46 4.56989 179.607
lowerback -5.06669 0.116237 -7.02838
upperback 3.17374 0.665971 1.36088
thorax 6.09603 0.0202823 5.45869
lowerneck -2.42023 -1.15339 -10.2879
upperneck 25.8311 -1.37635 16.4156
head 8.47396 0.933948 7.5812
rclavicle -3.68994e-015 -5.76476e-015
rhumerus -60.7808 -47.0335 -41.1299
rradius 16.1407
rwrist 36.1038
rhand -15.4627 -37.524
rfingers 7.12502
rthumb 10.7184 -67.2306
lclavicle -3.68994e-015 -5.76476e-015
lhumerus -27.606 3.36457 86.8661
lradius 26.842
lwrist -19.4546
lhand -26.8321 -22.7527
lfingers 7.12502
lthumb -0.257929 7.22691
rfemur -12.5374 8.99327 16.5645
rtibia 16.0285
rfoot -22.613 -3.98963
rtoes -24.8109
lfemur -8.31943 -7.99036 -22.409
ltibia 10.8081
lfoot -25.4643 2.05264
ltoes -60.1037
361
root 7.75763 25.1661 -11.6843 -171.425 4.39458 179.405
lowerback -5.54093 0.0714172 -7.13898
upperback 3.19704 0.648849 1.35715
thorax 6.39687 -0.00710038 5.52436
lowerneck -1.63612 -1.34592 -10.1444
upperneck 25.456 -1.6548 16.3175
head 8.2407 0.778961 7.46094
rclavicle -1.3418e-014 1.03865e-014
rhumerus -58.632 -46.4216 -43.6631
rradius 16.6178
rwrist 34.6068
rhand -15.7078 -37.4295
rfingers 7.12502
rthumb 10.482 -67.1482
lclavicle -1.3418e-014 1.03865e-014
lhumerus -27.8904 3.96057 86.7769
lradius 25.5432
lwrist -19.8971
lhand -26.7101 -22.442
lfingers 7.12502
lthumb -0.140073 7.53767
rfemur -11.7969 8.57726 16.396
rtibia 15.1853
rfoot -22.5333 -3.78395
rtoes -24.1443
lfemur -8.00753 -8.18404 -22.7695
ltibia 10.7324
lfoot -25.7658 1.65673
ltoes -59.6702
362
root 7.7688 25.1636 -11.7437 -171.193 4.11165 179.535
lowerback -6.02019 -0.0643853 -6.93827
upperback 3.15729 0.473076 1.45544
thorax 6.65584 -0.0991473 5.50296
lowerneck -1.91599 -1.2876 -10.1341
upperneck 25.2324 -1.61028 16.3294
head 8.20887 0.784353 7.45229
rclavicle -6.03808e-015 2.98177e-016
rhumerus -55.9585 -45.4375 -46.7381
rradius 17.1104
rwrist 32.9093
rhand -15.8463 -37.7511
rfingers 7.12502
rthumb 10.3484 -67.4765
lclavicle -6.03808e-015 2.98177e-016
lhumerus -28.0507 5.02294 86.49
lradius 24.2218
lwrist -20.8496
lhand -26.0388 -21.9598
lfingers 7.12502
lthumb 0.508295 8.0193
rfemur -11.3366 7.91815 16.5867
rtibia 14.4123
rfoot -22.4691 -3.50216
rtoes -24.8263
lfemur -8.0612 -8.26759 -22.6481
ltibia 10.8473
lfoot -26.1119 1.45841
ltoes -59.8992
363
root 7.7899 25.1611 -11.754 -171.018 4.12753 179.594
lowerback -5.76979 -0.0999725 -7.04465
upperback 2.93737 0.397057 1.57557
thorax 6.28734 -0.125322 5.67666
lowerneck -2.05657 -1.07989 -9.9283
upperneck 24.7927 -1.34173 16.0599
head 8.04342 0.86841 7.29792
rclavicle 6.28657e-015 9.24349e-015
rhumerus -53.2978 -43.9634 -50.0144
rradius 17.8225
rwrist 30.5622
rhand -16.0481 -37.9742
rfingers 7.12502
rthumb 10.1538 -67.7092
lclavicle 6.28657e-015 9.24349e-015
lhumerus -28.5793 5.75339 86.1808
lradius 23.2227
lwrist -21.722
lhand -25.6827 -21.9627
lfingers 7.12502
lthumb 0.852233 8.01535
rfemur -11.4826 7.89066 16.6432
rtibia 14.2933
rfoot -22.489 -3.53944
rtoes -25.1423
lfemur -8.46616 -8.35051 -22.3624
ltibia 11.2345
lfoot -26.4787 2.63684
ltoes -61.4962
364
root 7.80906 25.1589 -11.7689 -170.91 4.17813 179.802
lowerback -5.54795 -0.140183 -7.01895
upperback 2.79198 0.304507 1.82796
thorax 6.01829 -0.16151 5.91678
lowerneck -2.56992 -0.947252 -10.2522
upperneck 24.5667 -1.16538 15.935
head 8.03744 0.882494 7.31102
rclavicle -1.19271e-015 -1.63003e-014
rhumerus -50.7121 -42.3074 -53.0408
rradius 18.5867
rwrist 27.9717
rhand -16.2417 -38.1879
rfingers 7.12502
rthumb 9.96697 -67.9319
lclavicle -1.19271e-015 -1.63003e-014
lhumerus -29.0675 6.59486 85.9888
lradius 22.1157
lwrist -22.7684
lhand -25.6178 -22.3232
lfingers 7.12502
lthumb 0.914924 7.65463
rfemur -11.5062 7.93567 16.9167
rtibia 14.1344
rfoot -22.4598 -3.59334
rtoes -25.2997
lfemur -8.6294 -8.42147 -21.9635
ltibia 11.4236
lfoot -26.6584 3.3097
ltoes -62.1101
365
root 7.81311 25.1442 -11.8645 -171.275 4.15775 179.33
lowerback -6.05681 -0.0828211 -7.22317
upperback 3.00905 0.455833 1.63622
thorax 6.52128 -0.117238 5.85525
lowerneck -2.75557 -1.00452 -10.0464
upperneck 24.0727 -1.28127 15.7471
head 7.92291 0.793961 7.16505
rclavicle -1.91082e-014 -1.64991e-014
rhumerus -48.7745 -40.8452 -55.8376
rradius 19.4927
rwrist 25.3318
rhand -16.3466 -38.5005
rfingers 7.12502
rthumb 9.86579 -68.2493
lclavicle -1.91082e-014 -1.64991e-014
lhumerus -29.1965 7.09094 85.6281
lradius 20.6456
lwrist -24.2389
lhand -25.3218 -22.3283
lfingers 7.12502
lthumb 1.20077 7.64806
rfemur -10.2234 7.01233 16.4803
rtibia 13.1872
rfoot -22.3641 -2.79978
rtoes -25.2561
lfemur -7.39748 -8.56731 -22.9012
ltibia 10.7535
lfoot -26.7586 3.12065
ltoes -61.8592
366
root 7.83008 25.1414 -11.8893 -171.202 4.20493 179.469
lowerback -5.98607 -0.0114942 -7.08895
upperback 2.89948 0.528098 1.63695
thorax 6.35114 -0.0665816 5.78472
lowerneck -3.3873 -1.06223 -10.1245
upperneck 24.0696 -1.40631 15.9753
head 8.05787 0.753984 7.26466
rclavicle 5.7896e-015 2.82274e-014
rhumerus -46.8846 -39.1969 -58.5824
rradius 20.3493
rwrist 22.8893
rhand -16.3249 -38.1523
rfingers 7.12502
rthumb 9.8867 -67.9001
lclavicle 5.7896e-015 2.82274e-014
lhumerus -29.3418 8.20208 84.9292
lradius 19.0918
lwrist -26.262
lhand -24.8074 -22.0315
lfingers 7.12502
lthumb 1.69759 7.94147
rfemur -10.2459 7.45409 16.7041
rtibia 13.2058
rfoot -22.4407 -3.18564
rtoes -25.6937
lfemur -7.43636 -8.66284 -22.5961
ltibia 10.8169
lfoot -26.8789 3.41723
ltoes -62.0211
367
root 7.84152 25.1403 -11.9208 -171.25 4.43064 179.346
lowerback -5.91816 0.0691437 -7.20042
upperback 2.7958 0.638974 1.56258
thorax 6.18447 -0.00585555 5.77814
lowerneck -1.90123 -1.24595 -9.6403
upperneck 23.058 -1.6326 15.1086
head 7.47837 0.52217 6.76203
rclavicle -1.16786e-014 -5.86415e-015
rhumerus -45.3954 -37.7161 -60.7682
rradius 21.1379
rwrist 20.7611
rhand -16.3674 -37.6589
rfingers 7.12502
rthumb 9.84569 -67.4087
lclavicle -1.16786e-014 -5.86415e-015
lhumerus -29.5759 10.043 83.8996
lradius 17.5016
lwrist -29.1152
lhand -24.2418 -21.8033
lfingers 7.12502
lthumb 2.24383 8.16467
rfemur -10.1214 7.65996 16.6027
rtibia 13.2145
rfoot -22.5568 -3.17092
rtoes -25.7787
lfemur -7.20255 -8.66848 -22.738
ltibia 10.7236
lfoot -27.0147 3.95854
ltoes -62.4256
368
root 7.85061 25.1413 -11.9598 -171.215 4.37166 179.098
lowerback -6.09284 0.0265616 -7.35827
upperback 2.74011 0.610605 1.46224
thorax 6.23055 -0.0254245 5.76007
lowerneck -2.1505 -1.1594 -9.15814
upperneck 22.423 -1.53767 14.6258
head 7.29978 0.51677 6.47215
rclavicle -1.50579e-014 -9.93923e-016
rhumerus -44.4377 -37.2886 -61.834
rradius 21.5727
rwrist 20.254
rhand -16.2399 -36.1459
rfingers 7.12502
rthumb 9.96873 -65.8898
lclavicle -1.50579e-014 -9.93923e-016
lhumerus -29.8976 12.2535 82.6737
lradius 16.2739
lwrist -31.9963
lhand -23.5842 -21.6208
lfingers 7.12502
lthumb 2.8789 8.3395
rfemur -9.87098 7.45677 16.3433
rtibia 12.9901
rfoot -22.6201 -3.05254
rtoes -25.7183
lfemur -7.04753 -8.81812 -23.0624
ltibia 10.6394
lfoot -27.1254 4.21804
ltoes -62.7088
